{
	"asset":{
		"generator":"Khronos glTF Blender I/O v4.1.63",
		"version":"2.0"
	},
	"scene":0,
	"scenes":[
		{
			"name":"Scene",
			"nodes":[
				0
			]
		}
	],
	"nodes":[
		{
			"mesh":0,
			"name":"bookmark.001",
			"translation":[
				3.4813718795776367,
				3.604788064956665,
				6.606435298919678
			]
		}
	],
	"materials":[
		{
			"doubleSided":true,
			"name":"empastado 1",
			"pbrMetallicRoughness":{
				"baseColorFactor":[
					0.3004964292049408,
					0.013676950708031654,
					0.016156410798430443,
					1
				],
				"metallicFactor":0,
				"roughnessFactor":0.5
			}
		},
		{
			"doubleSided":true,
			"name":"Black Leather",
			"pbrMetallicRoughness":{
				"baseColorFactor":[
					0.5446138978004456,
					0.7079083323478699,
					1,
					1
				],
				"metallicFactor":0,
				"roughnessFactor":0.25
			}
		},
		{
			"doubleSided":true,
			"name":"empastado 1 a",
			"pbrMetallicRoughness":{
				"baseColorFactor":[
					0.10154972225427628,
					0.06874355673789978,
					0.013412906788289547,
					1
				],
				"metallicFactor":0
			}
		},
		{
			"doubleSided":true,
			"name":"empastado",
			"pbrMetallicRoughness":{
				"baseColorFactor":[
					0.08874893188476562,
					0.08516009151935577,
					0.084609255194664,
					1
				],
				"metallicFactor":0,
				"roughnessFactor":0.8319501876831055
			}
		},
		{
			"doubleSided":true,
			"name":"gold paint",
			"pbrMetallicRoughness":{
				"baseColorFactor":[
					0.8437600135803223,
					0.8496434092521667,
					0.9088031053543091,
					1
				],
				"roughnessFactor":0.2261410653591156
			}
		},
		{
			"doubleSided":true,
			"name":"text 1",
			"pbrMetallicRoughness":{
				"baseColorTexture":{
					"index":0
				},
				"metallicFactor":0.5394191145896912,
				"roughnessFactor":0.6655601859092712
			}
		},
		{
			"doubleSided":true,
			"name":"text 2",
			"pbrMetallicRoughness":{
				"baseColorTexture":{
					"index":1
				},
				"metallicFactor":0.5394191145896912,
				"roughnessFactor":0.6655601859092712
			}
		}
	],
	"meshes":[
		{
			"name":"Cube.008",
			"primitives":[
				{
					"attributes":{
						"POSITION":0,
						"NORMAL":1,
						"TEXCOORD_0":2,
						"TEXCOORD_1":3,
						"TEXCOORD_2":4
					},
					"indices":5,
					"material":0
				},
				{
					"attributes":{
						"POSITION":6,
						"NORMAL":7,
						"TEXCOORD_0":8,
						"TEXCOORD_1":9,
						"TEXCOORD_2":10
					},
					"indices":11,
					"material":1
				},
				{
					"attributes":{
						"POSITION":12,
						"NORMAL":13,
						"TEXCOORD_0":14,
						"TEXCOORD_1":15,
						"TEXCOORD_2":16
					},
					"indices":17,
					"material":2
				},
				{
					"attributes":{
						"POSITION":18,
						"NORMAL":19,
						"TEXCOORD_0":20,
						"TEXCOORD_1":21,
						"TEXCOORD_2":22
					},
					"indices":23,
					"material":3
				},
				{
					"attributes":{
						"POSITION":24,
						"NORMAL":25,
						"TEXCOORD_0":26,
						"TEXCOORD_1":27,
						"TEXCOORD_2":28
					},
					"indices":29,
					"material":4
				},
				{
					"attributes":{
						"POSITION":30,
						"NORMAL":31,
						"TEXCOORD_0":32,
						"TEXCOORD_1":33,
						"TEXCOORD_2":34
					},
					"indices":35,
					"material":5
				},
				{
					"attributes":{
						"POSITION":36,
						"NORMAL":37,
						"TEXCOORD_0":38,
						"TEXCOORD_1":39,
						"TEXCOORD_2":40
					},
					"indices":41,
					"material":6
				}
			]
		}
	],
	"textures":[
		{
			"sampler":0,
			"source":0
		},
		{
			"sampler":0,
			"source":0
		}
	],
	"images":[
		{
			"mimeType":"image/png",
			"name":"308-3089444_transparent-open-bible-png-png",
			"uri":"308-3089444_transparent-open-bible-png-png.png"
		}
	],
	"accessors":[
		{
			"bufferView":0,
			"componentType":5126,
			"count":1586,
			"max":[
				0.08836030960083008,
				0.13595199584960938,
				0.28805017471313477
			],
			"min":[
				-0.5012621879577637,
				0.04025149345397949,
				-0.8235268592834473
			],
			"type":"VEC3"
		},
		{
			"bufferView":1,
			"componentType":5126,
			"count":1586,
			"type":"VEC3"
		},
		{
			"bufferView":2,
			"componentType":5126,
			"count":1586,
			"type":"VEC2"
		},
		{
			"bufferView":3,
			"componentType":5126,
			"count":1586,
			"type":"VEC2"
		},
		{
			"bufferView":4,
			"componentType":5126,
			"count":1586,
			"type":"VEC2"
		},
		{
			"bufferView":5,
			"componentType":5123,
			"count":2790,
			"type":"SCALAR"
		},
		{
			"bufferView":6,
			"componentType":5126,
			"count":1648,
			"max":[
				0.7977190017700195,
				0.06645441055297852,
				0.5217537879943848
			],
			"min":[
				-1.2097783088684082,
				-0.023697614669799805,
				-1.0047907829284668
			],
			"type":"VEC3"
		},
		{
			"bufferView":7,
			"componentType":5126,
			"count":1648,
			"type":"VEC3"
		},
		{
			"bufferView":8,
			"componentType":5126,
			"count":1648,
			"type":"VEC2"
		},
		{
			"bufferView":9,
			"componentType":5126,
			"count":1648,
			"type":"VEC2"
		},
		{
			"bufferView":10,
			"componentType":5126,
			"count":1648,
			"type":"VEC2"
		},
		{
			"bufferView":11,
			"componentType":5123,
			"count":4992,
			"type":"SCALAR"
		},
		{
			"bufferView":12,
			"componentType":5126,
			"count":72,
			"max":[
				0.0632944107055664,
				0.06665420532226562,
				0.28008079528808594
			],
			"min":[
				-0.5012621879577637,
				0.04025149345397949,
				-0.763242244720459
			],
			"type":"VEC3"
		},
		{
			"bufferView":13,
			"componentType":5126,
			"count":72,
			"type":"VEC3"
		},
		{
			"bufferView":14,
			"componentType":5126,
			"count":72,
			"type":"VEC2"
		},
		{
			"bufferView":15,
			"componentType":5126,
			"count":72,
			"type":"VEC2"
		},
		{
			"bufferView":16,
			"componentType":5126,
			"count":72,
			"type":"VEC2"
		},
		{
			"bufferView":17,
			"componentType":5123,
			"count":108,
			"type":"SCALAR"
		},
		{
			"bufferView":18,
			"componentType":5126,
			"count":144,
			"max":[
				0.7479000091552734,
				0.06904196739196777,
				0.4984164237976074
			],
			"min":[
				-1.163764238357544,
				-0.002489328384399414,
				-0.971186637878418
			],
			"type":"VEC3"
		},
		{
			"bufferView":19,
			"componentType":5126,
			"count":144,
			"type":"VEC3"
		},
		{
			"bufferView":20,
			"componentType":5126,
			"count":144,
			"type":"VEC2"
		},
		{
			"bufferView":21,
			"componentType":5126,
			"count":144,
			"type":"VEC2"
		},
		{
			"bufferView":22,
			"componentType":5126,
			"count":144,
			"type":"VEC2"
		},
		{
			"bufferView":23,
			"componentType":5123,
			"count":264,
			"type":"SCALAR"
		},
		{
			"bufferView":24,
			"componentType":5126,
			"count":69798,
			"max":[
				0.7675199508666992,
				0.2382643222808838,
				0.502387523651123
			],
			"min":[
				-1.1808969974517822,
				-0.025675058364868164,
				-0.9755382537841797
			],
			"type":"VEC3"
		},
		{
			"bufferView":25,
			"componentType":5126,
			"count":69798,
			"type":"VEC3"
		},
		{
			"bufferView":26,
			"componentType":5126,
			"count":69798,
			"type":"VEC2"
		},
		{
			"bufferView":27,
			"componentType":5126,
			"count":69798,
			"type":"VEC2"
		},
		{
			"bufferView":28,
			"componentType":5126,
			"count":69798,
			"type":"VEC2"
		},
		{
			"bufferView":29,
			"componentType":5125,
			"count":361092,
			"type":"SCALAR"
		},
		{
			"bufferView":30,
			"componentType":5126,
			"count":28,
			"max":[
				0.6814956665039062,
				0.24098682403564453,
				0.4802122116088867
			],
			"min":[
				-0.3591337203979492,
				0.05944013595581055,
				-0.7154641151428223
			],
			"type":"VEC3"
		},
		{
			"bufferView":31,
			"componentType":5126,
			"count":28,
			"type":"VEC3"
		},
		{
			"bufferView":32,
			"componentType":5126,
			"count":28,
			"type":"VEC2"
		},
		{
			"bufferView":33,
			"componentType":5126,
			"count":28,
			"type":"VEC2"
		},
		{
			"bufferView":34,
			"componentType":5126,
			"count":28,
			"type":"VEC2"
		},
		{
			"bufferView":35,
			"componentType":5123,
			"count":66,
			"type":"SCALAR"
		},
		{
			"bufferView":36,
			"componentType":5126,
			"count":28,
			"max":[
				-0.0546116828918457,
				0.24098682403564453,
				0.24362897872924805
			],
			"min":[
				-1.0983529090881348,
				0.05944013595581055,
				-0.9424586296081543
			],
			"type":"VEC3"
		},
		{
			"bufferView":37,
			"componentType":5126,
			"count":28,
			"type":"VEC3"
		},
		{
			"bufferView":38,
			"componentType":5126,
			"count":28,
			"type":"VEC2"
		},
		{
			"bufferView":39,
			"componentType":5126,
			"count":28,
			"type":"VEC2"
		},
		{
			"bufferView":40,
			"componentType":5126,
			"count":28,
			"type":"VEC2"
		},
		{
			"bufferView":41,
			"componentType":5123,
			"count":66,
			"type":"SCALAR"
		}
	],
	"bufferViews":[
		{
			"buffer":0,
			"byteLength":19032,
			"byteOffset":0,
			"target":34962
		},
		{
			"buffer":0,
			"byteLength":19032,
			"byteOffset":19032,
			"target":34962
		},
		{
			"buffer":0,
			"byteLength":12688,
			"byteOffset":38064,
			"target":34962
		},
		{
			"buffer":0,
			"byteLength":12688,
			"byteOffset":50752,
			"target":34962
		},
		{
			"buffer":0,
			"byteLength":12688,
			"byteOffset":63440,
			"target":34962
		},
		{
			"buffer":0,
			"byteLength":5580,
			"byteOffset":76128,
			"target":34963
		},
		{
			"buffer":0,
			"byteLength":19776,
			"byteOffset":81708,
			"target":34962
		},
		{
			"buffer":0,
			"byteLength":19776,
			"byteOffset":101484,
			"target":34962
		},
		{
			"buffer":0,
			"byteLength":13184,
			"byteOffset":121260,
			"target":34962
		},
		{
			"buffer":0,
			"byteLength":13184,
			"byteOffset":134444,
			"target":34962
		},
		{
			"buffer":0,
			"byteLength":13184,
			"byteOffset":147628,
			"target":34962
		},
		{
			"buffer":0,
			"byteLength":9984,
			"byteOffset":160812,
			"target":34963
		},
		{
			"buffer":0,
			"byteLength":864,
			"byteOffset":170796,
			"target":34962
		},
		{
			"buffer":0,
			"byteLength":864,
			"byteOffset":171660,
			"target":34962
		},
		{
			"buffer":0,
			"byteLength":576,
			"byteOffset":172524,
			"target":34962
		},
		{
			"buffer":0,
			"byteLength":576,
			"byteOffset":173100,
			"target":34962
		},
		{
			"buffer":0,
			"byteLength":576,
			"byteOffset":173676,
			"target":34962
		},
		{
			"buffer":0,
			"byteLength":216,
			"byteOffset":174252,
			"target":34963
		},
		{
			"buffer":0,
			"byteLength":1728,
			"byteOffset":174468,
			"target":34962
		},
		{
			"buffer":0,
			"byteLength":1728,
			"byteOffset":176196,
			"target":34962
		},
		{
			"buffer":0,
			"byteLength":1152,
			"byteOffset":177924,
			"target":34962
		},
		{
			"buffer":0,
			"byteLength":1152,
			"byteOffset":179076,
			"target":34962
		},
		{
			"buffer":0,
			"byteLength":1152,
			"byteOffset":180228,
			"target":34962
		},
		{
			"buffer":0,
			"byteLength":528,
			"byteOffset":181380,
			"target":34963
		},
		{
			"buffer":0,
			"byteLength":837576,
			"byteOffset":181908,
			"target":34962
		},
		{
			"buffer":0,
			"byteLength":837576,
			"byteOffset":1019484,
			"target":34962
		},
		{
			"buffer":0,
			"byteLength":558384,
			"byteOffset":1857060,
			"target":34962
		},
		{
			"buffer":0,
			"byteLength":558384,
			"byteOffset":2415444,
			"target":34962
		},
		{
			"buffer":0,
			"byteLength":558384,
			"byteOffset":2973828,
			"target":34962
		},
		{
			"buffer":0,
			"byteLength":1444368,
			"byteOffset":3532212,
			"target":34963
		},
		{
			"buffer":0,
			"byteLength":336,
			"byteOffset":4976580,
			"target":34962
		},
		{
			"buffer":0,
			"byteLength":336,
			"byteOffset":4976916,
			"target":34962
		},
		{
			"buffer":0,
			"byteLength":224,
			"byteOffset":4977252,
			"target":34962
		},
		{
			"buffer":0,
			"byteLength":224,
			"byteOffset":4977476,
			"target":34962
		},
		{
			"buffer":0,
			"byteLength":224,
			"byteOffset":4977700,
			"target":34962
		},
		{
			"buffer":0,
			"byteLength":132,
			"byteOffset":4977924,
			"target":34963
		},
		{
			"buffer":0,
			"byteLength":336,
			"byteOffset":4978056,
			"target":34962
		},
		{
			"buffer":0,
			"byteLength":336,
			"byteOffset":4978392,
			"target":34962
		},
		{
			"buffer":0,
			"byteLength":224,
			"byteOffset":4978728,
			"target":34962
		},
		{
			"buffer":0,
			"byteLength":224,
			"byteOffset":4978952,
			"target":34962
		},
		{
			"buffer":0,
			"byteLength":224,
			"byteOffset":4979176,
			"target":34962
		},
		{
			"buffer":0,
			"byteLength":132,
			"byteOffset":4979400,
			"target":34963
		}
	],
	"samplers":[
		{
			"magFilter":9729,
			"minFilter":9987,
			"wrapS":33071,
			"wrapT":33071
		}
	],
	"buffers":[
		{
			"byteLength":4979532,
			"uri":"bible.bin"
		}
	]
}
