{
	"asset":{
		"generator":"Khronos glTF Blender I/O v4.1.63",
		"version":"2.0"
	},
	"scene":0,
	"scenes":[
		{
			"name":"Scene",
			"nodes":[
				0,
				1,
				2,
				3
			]
		}
	],
	"nodes":[
		{
			"mesh":0,
			"name":"Mid_2",
			"translation":[
				6.095518589019775,
				3.9973387718200684,
				6.346385478973389
			]
		},
		{
			"mesh":1,
			"name":"cilindro_low1",
			"translation":[
				5.700882434844971,
				3.870929718017578,
				5.7755866050720215
			]
		},
		{
			"mesh":2,
			"name":"pCylinder9",
			"translation":[
				6.3814263343811035,
				4.174908638000488,
				6.291828632354736
			]
		},
		{
			"mesh":3,
			"name":"pCylinder8",
			"translation":[
				6.38485860824585,
				4.133626937866211,
				6.0006022453308105
			]
		}
	],
	"materials":[
		{
			"alphaMode":"BLEND",
			"doubleSided":true,
			"name":"Camara_material",
			"normalTexture":{
				"index":0
			},
			"pbrMetallicRoughness":{
				"baseColorTexture":{
					"index":1
				},
				"metallicFactor":0,
				"metallicRoughnessTexture":{
					"index":2
				}
			}
		},
		{
			"doubleSided":true,
			"name":"Cilindro_material",
			"normalTexture":{
				"index":3
			},
			"pbrMetallicRoughness":{
				"baseColorTexture":{
					"index":4
				},
				"metallicFactor":0,
				"metallicRoughnessTexture":{
					"index":5
				}
			}
		},
		{
			"doubleSided":true,
			"name":"lambert3",
			"normalTexture":{
				"index":6
			},
			"pbrMetallicRoughness":{
				"baseColorFactor":[
					0.19158269464969635,
					0.19158269464969635,
					0.19158269464969635,
					1
				],
				"metallicFactor":0,
				"metallicRoughnessTexture":{
					"index":7
				}
			}
		},
		{
			"doubleSided":true,
			"name":"lambert1.002",
			"pbrMetallicRoughness":{
				"baseColorFactor":[
					0,
					0,
					0,
					1
				],
				"metallicFactor":0,
				"roughnessFactor":0.5527864098548889
			}
		},
		{
			"doubleSided":true,
			"name":"lambert4",
			"pbrMetallicRoughness":{
				"baseColorFactor":[
					0.012286663986742496,
					0.012286663986742496,
					0.012286663986742496,
					1
				],
				"metallicFactor":0,
				"roughnessFactor":0.5527864098548889
			}
		},
		{
			"doubleSided":true,
			"name":"ruleta_",
			"normalTexture":{
				"index":8
			},
			"pbrMetallicRoughness":{
				"baseColorTexture":{
					"index":9
				},
				"metallicFactor":0,
				"metallicRoughnessTexture":{
					"index":10
				}
			}
		},
		{
			"doubleSided":true,
			"name":"ruleta_2",
			"pbrMetallicRoughness":{
				"baseColorFactor":[
					0,
					0,
					0,
					1
				],
				"metallicFactor":0,
				"roughnessFactor":0.5527864098548889
			}
		}
	],
	"meshes":[
		{
			"name":"Mesh.021",
			"primitives":[
				{
					"attributes":{
						"POSITION":0,
						"NORMAL":1,
						"TEXCOORD_0":2
					},
					"indices":3,
					"material":0
				}
			]
		},
		{
			"name":"Mesh.022",
			"primitives":[
				{
					"attributes":{
						"POSITION":4,
						"NORMAL":5,
						"TEXCOORD_0":6
					},
					"indices":7,
					"material":1
				},
				{
					"attributes":{
						"POSITION":8,
						"NORMAL":9,
						"TEXCOORD_0":10
					},
					"indices":11,
					"material":2
				},
				{
					"attributes":{
						"POSITION":12,
						"NORMAL":13,
						"TEXCOORD_0":14
					},
					"indices":15,
					"material":3
				},
				{
					"attributes":{
						"POSITION":16,
						"NORMAL":17,
						"TEXCOORD_0":18
					},
					"indices":19,
					"material":4
				}
			]
		},
		{
			"name":"Mesh.023",
			"primitives":[
				{
					"attributes":{
						"POSITION":20,
						"NORMAL":21,
						"TEXCOORD_0":22
					},
					"indices":23,
					"material":5
				}
			]
		},
		{
			"name":"Mesh.024",
			"primitives":[
				{
					"attributes":{
						"POSITION":24,
						"NORMAL":25,
						"TEXCOORD_0":26
					},
					"indices":27,
					"material":6
				}
			]
		}
	],
	"textures":[
		{
			"sampler":0,
			"source":0
		},
		{
			"sampler":0,
			"source":1
		},
		{
			"sampler":0,
			"source":2
		},
		{
			"sampler":0,
			"source":3
		},
		{
			"sampler":0,
			"source":4
		},
		{
			"sampler":0,
			"source":5
		},
		{
			"sampler":0,
			"source":3
		},
		{
			"sampler":0,
			"source":5
		},
		{
			"sampler":0,
			"source":6
		},
		{
			"sampler":0,
			"source":7
		},
		{
			"sampler":0,
			"source":8
		}
	],
	"images":[
		{
			"mimeType":"image/png",
			"name":"Camara_Low_V2_lambert3_Normal",
			"uri":"Camara_Low_V2_lambert3_Normal.png"
		},
		{
			"mimeType":"image/png",
			"name":"Camara_Low_V2_lambert3_BaseColor",
			"uri":"Camara_Low_V2_lambert3_BaseColor.png"
		},
		{
			"mimeType":"image/png",
			"name":"Camara_Low_V2_lambert3_Metallic",
			"uri":"Camara_Low_V2_lambert3_Metallic.png"
		},
		{
			"mimeType":"image/png",
			"name":"Cilindro_low-bajo_Cilindro_material_Normal",
			"uri":"Cilindro_low-bajo_Cilindro_material_Normal.png"
		},
		{
			"mimeType":"image/png",
			"name":"Cilindro_low-bajo_Cilindro_material_BaseCo",
			"uri":"Cilindro_low-bajo_Cilindro_material_BaseCo.png"
		},
		{
			"mimeType":"image/png",
			"name":"Cilindro_low-bajo_Cilindro_material_Metall",
			"uri":"Cilindro_low-bajo_Cilindro_material_Metall.png"
		},
		{
			"mimeType":"image/png",
			"name":"ruleta_low_ruleta__Normal",
			"uri":"ruleta_low_ruleta__Normal.png"
		},
		{
			"mimeType":"image/png",
			"name":"ruleta_low_ruleta__BaseColor",
			"uri":"ruleta_low_ruleta__BaseColor.png"
		},
		{
			"mimeType":"image/png",
			"name":"ruleta_low_ruleta__Roughness",
			"uri":"ruleta_low_ruleta__Roughness.png"
		}
	],
	"accessors":[
		{
			"bufferView":0,
			"componentType":5126,
			"count":3748,
			"max":[
				0.5466208457946777,
				0.3552684783935547,
				0.40959835052490234
			],
			"min":[
				-0.41144800186157227,
				-0.41066431999206543,
				-0.4591069221496582
			],
			"type":"VEC3"
		},
		{
			"bufferView":1,
			"componentType":5126,
			"count":3748,
			"type":"VEC3"
		},
		{
			"bufferView":2,
			"componentType":5126,
			"count":3748,
			"type":"VEC2"
		},
		{
			"bufferView":3,
			"componentType":5123,
			"count":20076,
			"type":"SCALAR"
		},
		{
			"bufferView":4,
			"componentType":5126,
			"count":679,
			"max":[
				0.45920753479003906,
				0.2433149814605713,
				0.5421624183654785
			],
			"min":[
				-0.23708009719848633,
				-0.2433326244354248,
				-0.18598365783691406
			],
			"type":"VEC3"
		},
		{
			"bufferView":5,
			"componentType":5126,
			"count":679,
			"type":"VEC3"
		},
		{
			"bufferView":6,
			"componentType":5126,
			"count":679,
			"type":"VEC2"
		},
		{
			"bufferView":7,
			"componentType":5123,
			"count":2784,
			"type":"SCALAR"
		},
		{
			"bufferView":8,
			"componentType":5126,
			"count":97,
			"max":[
				0.11355304718017578,
				0.1584024429321289,
				0.04477548599243164
			],
			"min":[
				-0.1579298973083496,
				-0.15842199325561523,
				-0.11855077743530273
			],
			"type":"VEC3"
		},
		{
			"bufferView":9,
			"componentType":5126,
			"count":97,
			"type":"VEC3"
		},
		{
			"bufferView":10,
			"componentType":5126,
			"count":97,
			"type":"VEC2"
		},
		{
			"bufferView":11,
			"componentType":5123,
			"count":480,
			"type":"SCALAR"
		},
		{
			"bufferView":12,
			"componentType":5126,
			"count":240,
			"max":[
				0.13358116149902344,
				0.16337156295776367,
				0.10146856307983398
			],
			"min":[
				-0.16693782806396484,
				-0.1633892059326172,
				-0.12900495529174805
			],
			"type":"VEC3"
		},
		{
			"bufferView":13,
			"componentType":5126,
			"count":240,
			"type":"VEC3"
		},
		{
			"bufferView":14,
			"componentType":5126,
			"count":240,
			"type":"VEC2"
		},
		{
			"bufferView":15,
			"componentType":5123,
			"count":1320,
			"type":"SCALAR"
		},
		{
			"bufferView":16,
			"componentType":5126,
			"count":21,
			"max":[
				0.09208250045776367,
				0.05675792694091797,
				0.10146856307983398
			],
			"min":[
				-0.005202770233154297,
				-0.056775569915771484,
				0.04294109344482422
			],
			"type":"VEC3"
		},
		{
			"bufferView":17,
			"componentType":5126,
			"count":21,
			"type":"VEC3"
		},
		{
			"bufferView":18,
			"componentType":5126,
			"count":21,
			"type":"VEC2"
		},
		{
			"bufferView":19,
			"componentType":5123,
			"count":60,
			"type":"SCALAR"
		},
		{
			"bufferView":20,
			"componentType":5126,
			"count":84,
			"max":[
				0.08954906463623047,
				0.03582906723022461,
				0.08922004699707031
			],
			"min":[
				-0.08940601348876953,
				-0.03554821014404297,
				-0.08934783935546875
			],
			"type":"VEC3"
		},
		{
			"bufferView":21,
			"componentType":5126,
			"count":84,
			"type":"VEC3"
		},
		{
			"bufferView":22,
			"componentType":5126,
			"count":84,
			"type":"VEC2"
		},
		{
			"bufferView":23,
			"componentType":5123,
			"count":240,
			"type":"SCALAR"
		},
		{
			"bufferView":24,
			"componentType":5126,
			"count":434,
			"max":[
				0.03319358825683594,
				0.010528802871704102,
				0.02948617935180664
			],
			"min":[
				-0.03866434097290039,
				-0.04135727882385254,
				-0.02587890625
			],
			"type":"VEC3"
		},
		{
			"bufferView":25,
			"componentType":5126,
			"count":434,
			"type":"VEC3"
		},
		{
			"bufferView":26,
			"componentType":5126,
			"count":434,
			"type":"VEC2"
		},
		{
			"bufferView":27,
			"componentType":5123,
			"count":861,
			"type":"SCALAR"
		}
	],
	"bufferViews":[
		{
			"buffer":0,
			"byteLength":44976,
			"byteOffset":0,
			"target":34962
		},
		{
			"buffer":0,
			"byteLength":44976,
			"byteOffset":44976,
			"target":34962
		},
		{
			"buffer":0,
			"byteLength":29984,
			"byteOffset":89952,
			"target":34962
		},
		{
			"buffer":0,
			"byteLength":40152,
			"byteOffset":119936,
			"target":34963
		},
		{
			"buffer":0,
			"byteLength":8148,
			"byteOffset":160088,
			"target":34962
		},
		{
			"buffer":0,
			"byteLength":8148,
			"byteOffset":168236,
			"target":34962
		},
		{
			"buffer":0,
			"byteLength":5432,
			"byteOffset":176384,
			"target":34962
		},
		{
			"buffer":0,
			"byteLength":5568,
			"byteOffset":181816,
			"target":34963
		},
		{
			"buffer":0,
			"byteLength":1164,
			"byteOffset":187384,
			"target":34962
		},
		{
			"buffer":0,
			"byteLength":1164,
			"byteOffset":188548,
			"target":34962
		},
		{
			"buffer":0,
			"byteLength":776,
			"byteOffset":189712,
			"target":34962
		},
		{
			"buffer":0,
			"byteLength":960,
			"byteOffset":190488,
			"target":34963
		},
		{
			"buffer":0,
			"byteLength":2880,
			"byteOffset":191448,
			"target":34962
		},
		{
			"buffer":0,
			"byteLength":2880,
			"byteOffset":194328,
			"target":34962
		},
		{
			"buffer":0,
			"byteLength":1920,
			"byteOffset":197208,
			"target":34962
		},
		{
			"buffer":0,
			"byteLength":2640,
			"byteOffset":199128,
			"target":34963
		},
		{
			"buffer":0,
			"byteLength":252,
			"byteOffset":201768,
			"target":34962
		},
		{
			"buffer":0,
			"byteLength":252,
			"byteOffset":202020,
			"target":34962
		},
		{
			"buffer":0,
			"byteLength":168,
			"byteOffset":202272,
			"target":34962
		},
		{
			"buffer":0,
			"byteLength":120,
			"byteOffset":202440,
			"target":34963
		},
		{
			"buffer":0,
			"byteLength":1008,
			"byteOffset":202560,
			"target":34962
		},
		{
			"buffer":0,
			"byteLength":1008,
			"byteOffset":203568,
			"target":34962
		},
		{
			"buffer":0,
			"byteLength":672,
			"byteOffset":204576,
			"target":34962
		},
		{
			"buffer":0,
			"byteLength":480,
			"byteOffset":205248,
			"target":34963
		},
		{
			"buffer":0,
			"byteLength":5208,
			"byteOffset":205728,
			"target":34962
		},
		{
			"buffer":0,
			"byteLength":5208,
			"byteOffset":210936,
			"target":34962
		},
		{
			"buffer":0,
			"byteLength":3472,
			"byteOffset":216144,
			"target":34962
		},
		{
			"buffer":0,
			"byteLength":1722,
			"byteOffset":219616,
			"target":34963
		}
	],
	"samplers":[
		{
			"magFilter":9729,
			"minFilter":9987
		}
	],
	"buffers":[
		{
			"byteLength":221340,
			"uri":"canon.bin"
		}
	]
}
