{
	"asset":{
		"generator":"Khronos glTF Blender I/O v4.1.63",
		"version":"2.0"
	},
	"extensionsUsed":[
		"KHR_materials_specular"
	],
	"scene":0,
	"scenes":[
		{
			"name":"Scene",
			"nodes":[
				0
			]
		}
	],
	"nodes":[
		{
			"mesh":0,
			"name":"char_nightfury_tiny_hr",
			"scale":[
				1.8830777406692505,
				1.8830777406692505,
				1.8830777406692505
			],
			"translation":[
				-0.6905181407928467,
				4.057578086853027,
				5.389153003692627
			]
		}
	],
	"materials":[
		{
			"extensions":{
				"KHR_materials_specular":{
					"specularFactor":0
				}
			},
			"name":"Material.007",
			"pbrMetallicRoughness":{
				"baseColorTexture":{
					"index":0
				},
				"metallicFactor":0,
				"roughnessFactor":0.5
			}
		}
	],
	"meshes":[
		{
			"name":"char_nightfury_tiny_hr",
			"primitives":[
				{
					"attributes":{
						"POSITION":0,
						"NORMAL":1,
						"TEXCOORD_0":2
					},
					"indices":3,
					"material":0
				}
			]
		}
	],
	"textures":[
		{
			"sampler":0,
			"source":0
		}
	],
	"images":[
		{
			"mimeType":"image/png",
			"name":"tex_nightfury_tiny_5s_d",
			"uri":"tex_nightfury_tiny_5s_d.png"
		}
	],
	"accessors":[
		{
			"bufferView":0,
			"componentType":5126,
			"count":13982,
			"max":[
				0.724626362323761,
				0.16312384605407715,
				0.6937923431396484
			],
			"min":[
				-0.7371560335159302,
				-0.16508746147155762,
				-0.27414703369140625
			],
			"type":"VEC3"
		},
		{
			"bufferView":1,
			"componentType":5126,
			"count":13982,
			"type":"VEC3"
		},
		{
			"bufferView":2,
			"componentType":5126,
			"count":13982,
			"type":"VEC2"
		},
		{
			"bufferView":3,
			"componentType":5123,
			"count":82200,
			"type":"SCALAR"
		}
	],
	"bufferViews":[
		{
			"buffer":0,
			"byteLength":167784,
			"byteOffset":0,
			"target":34962
		},
		{
			"buffer":0,
			"byteLength":167784,
			"byteOffset":167784,
			"target":34962
		},
		{
			"buffer":0,
			"byteLength":111856,
			"byteOffset":335568,
			"target":34962
		},
		{
			"buffer":0,
			"byteLength":164400,
			"byteOffset":447424,
			"target":34963
		}
	],
	"samplers":[
		{
			"magFilter":9729,
			"minFilter":9987
		}
	],
	"buffers":[
		{
			"byteLength":611824,
			"uri":"dragon.bin"
		}
	]
}
