{
	"asset":{
		"generator":"Khronos glTF Blender I/O v4.1.63",
		"version":"2.0"
	},
	"scene":0,
	"scenes":[
		{
			"name":"Scene",
			"nodes":[
				0
			]
		}
	],
	"nodes":[
		{
			"mesh":0,
			"name":"envelope_StingrayPBS2_0",
			"rotation":[
				0,
				-0.6593657732009888,
				0,
				0.7518223524093628
			],
			"scale":[
				2.3213322162628174,
				2.3213322162628174,
				2.3213322162628174
			],
			"translation":[
				-6.922112464904785,
				14.192811965942383,
				7.814416408538818
			]
		}
	],
	"materials":[
		{
			"alphaMode":"BLEND",
			"doubleSided":true,
			"name":"StingrayPBS2.001",
			"normalTexture":{
				"index":0
			},
			"pbrMetallicRoughness":{
				"baseColorTexture":{
					"index":1
				},
				"metallicFactor":0,
				"metallicRoughnessTexture":{
					"index":2
				}
			}
		}
	],
	"meshes":[
		{
			"name":"envelope_StingrayPBS2_0.001",
			"primitives":[
				{
					"attributes":{
						"POSITION":0,
						"NORMAL":1,
						"TEXCOORD_0":2,
						"TEXCOORD_1":3,
						"TEXCOORD_2":4,
						"TEXCOORD_3":5,
						"TEXCOORD_4":6
					},
					"indices":7,
					"material":0
				}
			]
		}
	],
	"textures":[
		{
			"sampler":0,
			"source":0
		},
		{
			"sampler":0,
			"source":1
		},
		{
			"sampler":0,
			"source":2
		}
	],
	"images":[
		{
			"mimeType":"image/png",
			"name":"letter (2)",
			"uri":"letter%202.png"
		},
		{
			"mimeType":"image/png",
			"name":"letter (3)",
			"uri":"letter%203.png"
		},
		{
			"mimeType":"image/png",
			"name":"letter (1)",
			"uri":"letter%201.png"
		}
	],
	"accessors":[
		{
			"bufferView":0,
			"componentType":5126,
			"count":210,
			"max":[
				0.38369739055633545,
				0.013006210327148438,
				0.6226216554641724
			],
			"min":[
				-0.4699113368988037,
				-0.026102066040039062,
				-0.6178749799728394
			],
			"type":"VEC3"
		},
		{
			"bufferView":1,
			"componentType":5126,
			"count":210,
			"type":"VEC3"
		},
		{
			"bufferView":2,
			"componentType":5126,
			"count":210,
			"type":"VEC2"
		},
		{
			"bufferView":3,
			"componentType":5126,
			"count":210,
			"type":"VEC2"
		},
		{
			"bufferView":4,
			"componentType":5126,
			"count":210,
			"type":"VEC2"
		},
		{
			"bufferView":5,
			"componentType":5126,
			"count":210,
			"type":"VEC2"
		},
		{
			"bufferView":6,
			"componentType":5126,
			"count":210,
			"type":"VEC2"
		},
		{
			"bufferView":7,
			"componentType":5123,
			"count":318,
			"type":"SCALAR"
		}
	],
	"bufferViews":[
		{
			"buffer":0,
			"byteLength":2520,
			"byteOffset":0,
			"target":34962
		},
		{
			"buffer":0,
			"byteLength":2520,
			"byteOffset":2520,
			"target":34962
		},
		{
			"buffer":0,
			"byteLength":1680,
			"byteOffset":5040,
			"target":34962
		},
		{
			"buffer":0,
			"byteLength":1680,
			"byteOffset":6720,
			"target":34962
		},
		{
			"buffer":0,
			"byteLength":1680,
			"byteOffset":8400,
			"target":34962
		},
		{
			"buffer":0,
			"byteLength":1680,
			"byteOffset":10080,
			"target":34962
		},
		{
			"buffer":0,
			"byteLength":1680,
			"byteOffset":11760,
			"target":34962
		},
		{
			"buffer":0,
			"byteLength":636,
			"byteOffset":13440,
			"target":34963
		}
	],
	"samplers":[
		{
			"magFilter":9729,
			"minFilter":9987
		}
	],
	"buffers":[
		{
			"byteLength":14076,
			"uri":"letter.bin"
		}
	]
}
